<?xml version="1.0" encoding="utf-8"?>
<!-- Generator: Adobe Illustrator 24.2.0, SVG Export Plug-In . SVG Version: 6.00 Build 0)  -->
<svg version="1.1" id="Capa_1" xmlns="http://www.w3.org/2000/svg" xmlns:xlink="http://www.w3.org/1999/xlink" x="0px" y="0px"
	 viewBox="0 0 1434.3 261.4" style="enable-background:new 0 0 1434.3 261.4;" xml:space="preserve">
<style type="text/css">
	.st0{fill:#0D2C38;}
	.st1{fill:#339A99;}
	.st2{fill:#FFFFFF;}
</style>
<g>
	<g>
		<polygon class="st0" points="428.2,163.8 341.8,35.8 313.7,35.8 313.7,212.3 341.3,212.3 341.3,84.3 427.9,212.3 455.7,212.3 
			455.7,35.8 428.2,35.8 		"/>
		<rect x="487.8" y="96.6" class="st0" width="26.6" height="115.7"/>
		<path class="st0" d="M501.1,51.8c-9.3,0-16.6,7.2-16.6,16.4c0,9.2,7.5,16.6,16.6,16.6c9,0,16.4-7.5,16.4-16.6
			C517.5,59.2,510.1,51.8,501.1,51.8z"/>
		<path class="st0" d="M617.4,174.3c-6.4,9-16.6,14.3-27.3,14.3c-18.7,0-33.9-15.3-33.9-34.1s15.2-34.1,33.9-34.1
			c10.6,0,20.8,5.3,27.3,14.1l1.8,2.4l21.3-15.7l-1.7-2.4c-1.6-2.3-3.6-4.6-6.1-7.1c-11.2-11.2-26.3-17.4-42.6-17.4
			c-16.4,0-31.6,6.2-42.8,17.4c-11.4,11.6-17.6,26.8-17.6,42.8s6.3,31.2,17.6,42.8c11.2,11.2,26.4,17.4,42.8,17.4
			c16.2,0,31.4-6.2,42.6-17.4c2.3-2.3,4.3-4.8,6.2-7.2l-2.3-1.9l2.3,1.9l2-2.5l-21.7-15.8L617.4,174.3z"/>
		<path class="st0" d="M702.9,94.2c-16.1,0-31.3,6.2-42.8,17.4c-11.4,11.6-17.6,26.8-17.6,42.8s6.3,31.2,17.7,42.8
			c11.6,11.4,26.8,17.6,42.8,17.6c16.1,0,31.2-6.3,42.6-17.6c11.5-11.5,17.9-26.7,17.9-42.8s-6.3-31.3-17.9-42.8
			C734.3,100.4,719.2,94.2,702.9,94.2z M702.9,188.3c-18.7,0-33.9-15.2-33.9-33.9c0-18.5,15.2-33.6,33.9-33.6s33.9,15.1,33.9,33.6
			C736.8,173.1,721.6,188.3,702.9,188.3z"/>
		<path class="st0" d="M916.5,57.6c20.7,0,39.7,9.5,51.9,26.1l1.8,2.4l21.9-16l-1.8-2.4c-17.6-23.6-44.5-37.1-73.8-37.1
			c-50.9,0-92.3,41.3-92.3,92.1c0,50.9,41.4,92.3,92.3,92.3c29.2,0,56-13.4,73.5-36.9l1.8-2.4l-21.6-16l-1.8,2.4
			c-12.6,16.4-31.5,25.9-52,25.9c-17.5,0-33.9-6.8-46.2-19.1c-12.3-12.3-19.1-28.7-19.1-46.2C851.3,86.8,880.5,57.6,916.5,57.6z"/>
		<path class="st0" d="M1093.3,106.2c-8.5-6.1-20.2-12-33.9-12c-16.1,0-31.3,6.2-42.8,17.4c-11.4,11.6-17.6,26.8-17.6,42.8
			s6.3,31.2,17.7,42.8c11.5,11.2,26.7,17.4,42.8,17.4c13.6,0,25.4-5.9,33.9-12v9.6h26.6V96.6h-26.6V106.2z M1059.5,188.6
			c-18.7,0-33.9-15.3-33.9-34.1s15.2-34.1,33.9-34.1s33.9,15.3,33.9,34.1S1078.1,188.6,1059.5,188.6z"/>
		<rect x="1141.9" y="30.5" class="st0" width="26.6" height="181.8"/>
		<polygon class="st0" points="1270.8,96.6 1239.5,174 1208,96.6 1179.3,96.6 1226.2,212.3 1252.6,212.3 1299.5,96.6 		"/>
		<path class="st0" d="M1399.2,111.6c-11.2-11.2-26.3-17.4-42.6-17.4c-16.1,0-31.3,6.2-42.8,17.4c-11.4,11.6-17.6,26.8-17.6,42.8
			s6.3,31.2,17.7,42.8c11.6,11.4,26.8,17.6,42.8,17.6c16.1,0,31.2-6.3,42.6-17.6c11.5-11.5,17.9-26.7,17.9-42.8
			S1410.7,123.2,1399.2,111.6z M1356.6,188.3c-18.7,0-33.9-15.2-33.9-33.9c0-18.5,15.2-33.6,33.9-33.6s33.9,15.1,33.9,33.6
			C1390.5,173.1,1375.3,188.3,1356.6,188.3z"/>
	</g>
	<circle class="st1" cx="131.5" cy="130.7" r="122.3"/>
	<g>
		<path class="st2" d="M173.9,171.2c-22.5,0-40.5-18.1-40.5-40.5c0-22.3,18.1-40.4,40.5-40.4c12.8,0,24.6,5.8,32.3,16.2l10.1-7.4
			c-10.1-13.5-25.6-21.3-42.4-21.3c-29.3,0-53.1,23.8-53.1,52.9c0,29.3,23.8,53.1,53.1,53.1c16.6,0,32.2-7.7,42.3-21.2l-10-7.4
			C198.4,165.3,186.6,171.2,173.9,171.2z"/>
		<path class="st2" d="M127.5,98.6V80.8h-12.8v80.1L60.6,80.8H46.7v101.3h12.8V102l54.2,80.1h13.8v-19.4c-6.5-9.4-10-20.5-10-32.1
			C117.4,118.7,121.2,107.7,127.5,98.6z"/>
	</g>
</g>
</svg>
